# xmcd
#
# Track frame offsets:
#	150
#	6125
#	24282
#	41100
#	58392
#	75685
#	93200
#	111087
#	114595
#	133897
#	145500
#	159720
#	172690
#	191300
#	195532
#
# Disc length: 2837 seconds
#
# Revision: 1
# Processed by: cddbd v1.5.1PL0 Copyright (c) Steve Scherf et al.
# Submitted via: CDex 1.50Beta5
#
DISCID=bd0b130f
DTITLE=CORN HEAD - DA CORN HEAD
DYEAR=2002
DGENRE=ミュージック
TTITLE0=INTRO feat.大倉正之助
TTITLE1=MOVE ON
TTITLE2=DANCE HALL NIGHT feat.ZEBRAMAN&KOSE
TTITLE3=WHICH WAY
TTITLE4=TEQUIRA〜みんなDAY〜
TTITLE5=C-WALK
TTITLE6=WAKE UP feat.MOOMIN
TTITLE7=中トロ
TTITLE8=GUERRILLA MONSTER feat.RYO the SKYWALKER
TTITLE9=MUSIC LOVER feat.BAMIUDA
TTITLE10=IMAGINE
TTITLE11=JENNY feat.BOXER KID
TTITLE12=YOUNG GENERATION 2002 ver.feat.RUDE BOY FACE、大倉正之助
TTITLE13=OUTRO
TTITLE14=WAKE UP
EXTD=
EXTT0=
EXTT1=
EXTT2=
EXTT3=
EXTT4=
EXTT5=
EXTT6=
EXTT7=
EXTT8=
EXTT9=
EXTT10=
EXTT11=
EXTT12=
EXTT13=
EXTT14=
PLAYORDER=
